<?xml version="1.0" encoding="iso-8859-1"?>
<!-- Generator: Adobe Illustrator 19.0.0, SVG Export Plug-In . SVG Version: 6.00 Build 0)  -->
<svg version="1.1" id="Layer_1" xmlns="http://www.w3.org/2000/svg" xmlns:xlink="http://www.w3.org/1999/xlink" x="0px" y="0px"
	 viewBox="0 0 454.506 454.506" style="enable-background:new 0 0 454.506 454.506;" xml:space="preserve">
<g>
	<circle style="fill:#CCCCCC;" cx="116.407" cy="357.368" r="11"/>
	<circle style="fill:#CCCCCC;" cx="340.16" cy="329.117" r="14.919"/>
	<path style="fill:#CCCCCC;" d="M246.9,319.386v39.545c5.75,1.63,9.97,6.92,9.97,13.2c0,0.06-0.01,0.12-0.01,0.18
		c0.9-0.11,1.81-0.18,2.73-0.18c10.73,0,19.72,7.35,22.27,17.28c1.54-0.23,3.1-0.35,4.69-0.35c5,0,9.73,1.14,13.95,3.17
		c7.54-6.9,17.58-11.11,28.6-11.11c6.6,0,12.84,1.51,18.41,4.2c3.2-22.64,22.64-40.06,46.16-40.06c25.75,0,46.63,20.88,46.63,46.63
		c0,13.02-5.34,24.79-13.95,33.25c2.85,4.3,4.85,9.2,5.81,14.47H260.01h-74.72H13.14c0.96-5.27,2.96-10.17,5.81-14.47
		C10.34,416.68,5,404.91,5,391.89c0-25.75,20.88-46.63,46.63-46.63c23.52,0,42.96,17.42,46.16,40.06c5.57-2.69,11.81-4.2,18.41-4.2
		c11.02,0,21.06,4.21,28.6,11.11c4.22-2.03,8.95-3.17,13.95-3.17c1.59,0,3.16,0.12,4.69,0.35c2.55-9.93,11.54-17.28,22.27-17.28
		c0.92,0,1.83,0.07,2.73,0.18c0-0.06-0.01-0.12-0.01-0.18c0-6.09,3.97-11.26,9.47-13.05v-39.695h49V319.386z"/>
	<polygon style="fill:#E6E6E6;" points="300.643,251.298 300.643,319.388 267.643,319.388 267.643,227.298 	"/>
	<polygon style="fill:#CCCCCC;" points="177.653,227.298 177.653,319.388 144.653,319.388 144.653,251.298 	"/>
	<path style="fill:#E6E6E6;" d="M267.643,120.988v198.4h-89.99v-198.4c0-5.01,0.25-9.99,0.75-14.93h88.49
		C267.393,110.998,267.643,115.978,267.643,120.988z"/>
	<path style="fill:#F24125;" d="M266.893,106.058h-88.49c3.51-34.5,19.09-66.84,44.25-91.16c14.38,13.9,25.63,30.42,33.28,48.47
		C261.663,76.898,265.383,91.278,266.893,106.058z"/>
	<path style="opacity:0.25;enable-background:new    ;" d="M222.653,14.898c0,0-12.77,35.23-12.77,91.16s0,211.93,0,211.93
		l-32.23,1.4v-198.4c0-5.01,0.25-9.99,0.75-14.93C181.913,71.558,197.493,39.218,222.653,14.898z"/>
	<path style="fill:#333333;" d="M272.643,227.297h-10v-106.31c0-4.823-0.244-9.676-0.725-14.427
		c-1.451-14.199-5.014-28.077-10.589-41.244c-6.861-16.188-16.497-30.751-28.674-43.349c-22.146,22.942-36.042,52.794-39.277,84.595
		c-0.48,4.748-0.724,9.602-0.724,14.424v106.31h-10v-106.31c0-5.158,0.261-10.35,0.775-15.434
		c3.64-35.781,19.888-69.253,45.75-94.252c1.938-1.873,5.012-1.873,6.95,0c14.803,14.309,26.379,31.17,34.408,50.114
		c5.966,14.087,9.778,28.936,11.331,44.133c0.515,5.088,0.776,10.281,0.776,15.438L272.643,227.297L272.643,227.297z"/>
	<rect x="177.653" y="314.388" style="fill:#333333;" width="89.99" height="10"/>
	<path style="fill:#333333;" d="M177.653,324.388h-33c-2.761,0-5-2.239-5-5v-68.09c0-1.6,0.766-3.103,2.059-4.043l33-24
		c1.521-1.107,3.534-1.266,5.21-0.412c1.676,0.854,2.731,2.575,2.731,4.456v92.09C182.653,322.149,180.414,324.388,177.653,324.388z
		 M149.653,314.388h23v-77.271l-23,16.727V314.388z"/>
	<path style="fill:#333333;" d="M300.643,324.388h-33c-2.761,0-5-2.239-5-5v-23.4c0-2.761,2.239-5,5-5s5,2.239,5,5v18.4h23v-60.544
		l-23-16.727v44.204c0,2.761-2.239,5-5,5s-5-2.239-5-5v-54.023c0-1.881,1.055-3.602,2.731-4.456c1.678-0.853,3.689-0.694,5.21,0.412
		l33,24c1.293,0.94,2.059,2.444,2.059,4.043v68.09C305.643,322.149,303.404,324.388,300.643,324.388z"/>
	<path style="fill:#FFFFFF;" d="M247.821,90.729c-2.19,0-4.201-1.451-4.815-3.665c-2.438-8.785-5.823-17.336-10.062-25.416
		c-1.283-2.445-0.34-5.468,2.105-6.75c2.445-1.282,5.467-0.341,6.75,2.105c4.567,8.707,8.215,17.921,10.842,27.388
		c0.738,2.661-0.82,5.417-3.481,6.155C248.714,90.669,248.264,90.729,247.821,90.729z"/>
	<path style="fill:#FFFFFF;" d="M229.059,50.556c-1.588,0-3.15-0.755-4.12-2.161c-1.936-2.806-4.009-5.566-6.162-8.206
		c-1.746-2.139-1.427-5.289,0.712-7.035c2.139-1.747,5.289-1.428,7.035,0.712c2.323,2.846,4.559,5.823,6.646,8.849
		c1.568,2.273,0.997,5.387-1.276,6.955C231.027,50.269,230.038,50.556,229.059,50.556z"/>
	<path style="fill:#333333;" d="M116.407,373.368c-8.822,0-16-7.178-16-16s7.178-16,16-16s16,7.178,16,16
		S125.229,373.368,116.407,373.368z M116.407,351.368c-3.309,0-6,2.691-6,6s2.691,6,6,6s6-2.691,6-6
		S119.716,351.368,116.407,351.368z"/>
	<path style="fill:#333333;" d="M340.16,349.036c-10.983,0-19.919-8.936-19.919-19.919s8.936-19.919,19.919-19.919
		s19.919,8.936,19.919,19.919S351.143,349.036,340.16,349.036z M340.16,319.198c-5.47,0-9.919,4.45-9.919,9.919
		c0,5.47,4.45,9.919,9.919,9.919s9.919-4.45,9.919-9.919C350.079,323.647,345.629,319.198,340.16,319.198z"/>
	<path style="fill:#333333;" d="M93.871,409.972c-0.773,0-1.558-0.18-2.292-0.559c-2.453-1.268-3.414-4.284-2.146-6.738
		c3.005-5.814,3.443-14.394,3.359-17.209c-0.083-2.76,2.087-5.065,4.847-5.148c2.754-0.087,5.065,2.086,5.148,4.847
		c0.016,0.519,0.328,12.818-4.47,22.102C97.428,408.985,95.681,409.972,93.871,409.972z"/>
	<path style="fill:#333333;" d="M164.339,407.902c-2.056,0-3.982-1.278-4.711-3.325c-2.895-8.137-1.249-15.528-1.052-16.344
		c0.648-2.684,3.35-4.332,6.035-3.686c2.676,0.647,4.324,3.333,3.692,6.009c-0.036,0.16-1.15,5.336,0.748,10.668
		c0.925,2.602-0.433,5.461-3.035,6.387C165.461,407.808,164.895,407.902,164.339,407.902z"/>
	<path style="fill:#333333;" d="M135.178,406.833c-0.735,0-1.482-0.163-2.188-0.507c-2.482-1.21-3.513-4.204-2.302-6.686
		c3.866-7.927,11.163-11.547,11.982-11.934c2.497-1.18,5.478-0.11,6.656,2.387c1.175,2.488,0.117,5.456-2.361,6.644
		c-0.148,0.074-4.955,2.502-7.289,7.287C138.809,405.8,137.03,406.833,135.178,406.833z"/>
	<path style="fill:#333333;" d="M144.801,397.23c-1.225,0-2.435-0.45-3.376-1.312c-6.905-6.318-15.863-9.798-25.225-9.798
		c-5.686,0-11.149,1.246-16.236,3.702c-1.437,0.694-3.12,0.661-4.529-0.091c-1.408-0.752-2.373-2.131-2.596-3.711
		c-1.912-13.529-10.374-25.266-22.636-31.395c-2.47-1.234-3.472-4.238-2.237-6.708c1.234-2.471,4.237-3.472,6.708-2.237
		c13.305,6.65,23.002,18.632,26.806,32.77c4.724-1.548,9.653-2.33,14.72-2.33c10.772,0,21.123,3.634,29.488,10.297
		c4.542-1.708,9.353-2.51,14.299-2.336c4.146-9.674,13.448-16.292,24.103-16.905c1.628-5.977,6.153-10.862,12.262-12.851
		c2.629-0.856,5.448,0.582,6.302,3.207c0.854,2.626-0.581,5.447-3.207,6.302c-3.556,1.158-5.959,4.425-6.017,8.159
		c0.006,0.106,0.009,0.211,0.009,0.317c0,1.432-0.614,2.794-1.686,3.744c-1.072,0.949-2.497,1.392-3.92,1.22
		c-0.791-0.097-1.486-0.144-2.125-0.144c-8.216,0-15.382,5.561-17.427,13.524c-0.637,2.483-3.047,4.088-5.586,3.701
		c-1.3-0.195-2.628-0.294-3.947-0.294c-4.127,0-8.092,0.9-11.783,2.676C146.276,397.068,145.536,397.23,144.801,397.23z"/>
	<path style="fill:#333333;" d="M57.216,444.61H13.14c-1.483,0-2.889-0.658-3.839-1.797s-1.345-2.64-1.08-4.099
		c0.83-4.557,2.339-8.878,4.5-12.893C4.49,416.42,0,404.515,0,391.891c0-28.469,23.161-51.63,51.63-51.63c2.761,0,5,2.239,5,5
		s-2.239,5-5,5c-22.955,0-41.63,18.675-41.63,41.63c0,11.25,4.423,21.792,12.454,29.684c1.708,1.679,1.986,4.333,0.663,6.329
		c-1.4,2.111-2.546,4.354-3.431,6.707h37.53c2.761,0,5,2.239,5,5S59.977,444.61,57.216,444.61z"/>
	<path style="fill:#333333;" d="M86.55,444.61h-9.334c-2.761,0-5-2.239-5-5s2.239-5,5-5h9.334c2.761,0,5,2.239,5,5
		S89.311,444.61,86.55,444.61z"/>
	<path style="fill:#333333;" d="M339.216,444.61H105.883c-2.761,0-5-2.239-5-5s2.239-5,5-5h233.333c2.761,0,5,2.239,5,5
		S341.977,444.61,339.216,444.61z"/>
	<path style="fill:#333333;" d="M432.16,444.61h-76.944c-2.761,0-5-2.239-5-5s2.239-5,5-5h70.397
		c-0.885-2.354-2.031-4.596-3.431-6.707c-1.323-1.997-1.045-4.651,0.663-6.329c5.094-5.005,8.832-11.25,10.809-18.058
		c0.771-2.652,3.546-4.178,6.196-3.407c2.652,0.771,4.177,3.544,3.407,6.196c-2.087,7.185-5.75,13.861-10.681,19.512
		c2.161,4.016,3.671,8.338,4.501,12.897c0.266,1.459-0.13,2.96-1.08,4.099C435.049,443.952,433.643,444.61,432.16,444.61z"/>
	<path style="fill:#333333;" d="M440.3,396.891c-2.761,0-5-2.239-5-5c0-2.828-0.285-5.652-0.846-8.394
		c-0.554-2.705,1.19-5.347,3.896-5.901c2.698-0.554,5.347,1.189,5.901,3.896c0.696,3.4,1.049,6.899,1.049,10.4
		C445.3,394.652,443.061,396.891,440.3,396.891z"/>
	<path style="fill:#333333;" d="M300.499,397.23c-0.735,0-1.476-0.162-2.166-0.494c-3.692-1.775-7.656-2.676-11.783-2.676
		c-1.31,0-2.64,0.099-3.952,0.295c-2.531,0.378-4.944-1.22-5.581-3.702c-2.045-7.963-9.211-13.524-17.427-13.524
		c-0.639,0-1.334,0.047-2.124,0.144c-1.421,0.172-2.849-0.271-3.92-1.22c-1.072-0.949-1.686-2.312-1.686-3.744
		c0-0.081,0.004-0.193,0.009-0.299c-0.052-3.834-2.642-7.224-6.333-8.271c-2.657-0.753-4.2-3.518-3.447-6.174
		c0.753-2.656,3.514-4.199,6.174-3.447c6.375,1.807,11.22,6.866,12.933,13.056c10.661,0.607,19.968,7.227,24.116,16.905
		c4.955-0.169,9.757,0.628,14.299,2.336c8.365-6.662,18.716-10.297,29.488-10.297c5.068,0,9.999,0.782,14.723,2.331
		c5.989-22.158,26.409-38.191,49.847-38.191c18.188,0,34.693,9.292,44.151,24.855c1.434,2.36,0.684,5.436-1.676,6.87
		c-2.36,1.433-5.436,0.683-6.87-1.676c-7.629-12.554-20.939-20.049-35.605-20.049c-20.611,0-38.328,15.374-41.209,35.76
		c-0.223,1.581-1.188,2.96-2.597,3.711c-1.408,0.751-3.092,0.785-4.528,0.091c-5.087-2.457-10.549-3.702-16.236-3.702
		c-9.362,0-18.32,3.48-25.224,9.798C302.934,396.781,301.724,397.23,300.499,397.23z"/>
	<path style="fill:#333333;" d="M351.429,409.972c-1.81,0-3.558-0.986-4.446-2.706c-4.797-9.283-4.486-21.582-4.47-22.101
		c0.083-2.761,2.406-4.951,5.148-4.847c2.758,0.083,4.927,2.383,4.848,5.141l0,0c-0.003,0.102-0.235,10.264,3.358,17.217
		c1.268,2.453,0.307,5.47-2.146,6.737C352.987,409.792,352.202,409.972,351.429,409.972z"/>
	<path style="fill:#333333;" d="M280.961,407.902c-0.557,0-1.122-0.094-1.676-0.291c-2.602-0.926-3.96-3.785-3.034-6.387
		c1.918-5.39,0.759-10.62,0.747-10.672c-0.613-2.681,1.05-5.368,3.726-5.998c2.68-0.626,5.355,1.006,6.001,3.678
		c0.197,0.816,1.843,8.208-1.053,16.344C284.943,406.624,283.017,407.902,280.961,407.902z"/>
	<path style="fill:#333333;" d="M310.123,406.833c-1.852,0-3.631-1.033-4.498-2.809c-2.371-4.861-7.214-7.252-7.262-7.275
		c-2.497-1.179-3.566-4.159-2.387-6.656c1.178-2.497,4.158-3.568,6.656-2.387c0.819,0.387,8.116,4.007,11.982,11.934
		c1.21,2.482,0.18,5.476-2.302,6.686C311.605,406.67,310.858,406.833,310.123,406.833z"/>
	<g>
		<path style="fill:#FFFFFF;" d="M213.65,382.61c-2.761,0-5-2.239-5-5v-45c0-2.761,2.239-5,5-5s5,2.239,5,5v45
			C218.65,380.372,216.411,382.61,213.65,382.61z"/>
		<path style="fill:#FFFFFF;" d="M231.65,382.61c-2.761,0-5-2.239-5-5v-45c0-2.761,2.239-5,5-5s5,2.239,5,5v45
			C236.65,380.372,234.411,382.61,231.65,382.61z"/>
	</g>
	<path style="fill:#333333;" d="M365.154,444.61c-2.761,0-5-2.239-5-5c0-18.471,15.027-33.499,33.499-33.499c2.761,0,5,2.239,5,5
		s-2.239,5-5,5c-12.957,0-23.499,10.542-23.499,23.499C370.154,442.372,367.916,444.61,365.154,444.61z"/>
	<path style="fill:#333333;" d="M389.506,324.613c-0.33,0-0.65-0.04-0.98-0.1c-0.32-0.06-0.63-0.16-0.93-0.29
		c-0.3-0.12-0.59-0.28-0.87-0.46c-0.27-0.18-0.52-0.39-0.76-0.62c-0.93-0.93-1.46-2.21-1.46-3.53c0-0.33,0.03-0.66,0.1-0.98
		c0.06-0.32,0.16-0.63,0.28-0.93c0.13-0.31,0.28-0.6,0.46-0.87s0.39-0.53,0.62-0.76c0.24-0.23,0.49-0.44,0.76-0.62
		c0.28-0.18,0.57-0.33,0.87-0.46c0.3-0.12,0.61-0.22,0.93-0.28c0.65-0.13,1.31-0.13,1.96,0c0.32,0.06,0.63,0.16,0.93,0.28
		c0.3,0.13,0.59,0.28,0.87,0.46c0.27,0.18,0.53,0.39,0.76,0.62s0.44,0.49,0.62,0.76c0.18,0.27,0.33,0.56,0.46,0.87
		c0.12,0.3,0.22,0.61,0.28,0.93c0.07,0.32,0.1,0.65,0.1,0.98c0,1.31-0.53,2.6-1.46,3.53c-0.23,0.23-0.49,0.44-0.76,0.62
		c-0.28,0.18-0.57,0.34-0.87,0.46c-0.3,0.13-0.61,0.23-0.93,0.29C390.156,324.573,389.836,324.613,389.506,324.613z"/>
	<path style="fill:#333333;" d="M449.506,430.613c-1.32,0-2.61-0.54-3.54-1.47c-0.93-0.93-1.46-2.22-1.46-3.53
		c0-1.32,0.53-2.61,1.46-3.54c0.94-0.93,2.22-1.46,3.54-1.46s2.61,0.53,3.54,1.46c0.93,0.93,1.46,2.22,1.46,3.54
		c0,1.31-0.53,2.6-1.46,3.53C452.116,430.073,450.826,430.613,449.506,430.613z"/>
	<path style="fill:#333333;" d="M89.506,332.613c-1.32,0-2.61-0.54-3.54-1.47s-1.46-2.22-1.46-3.53c0-0.33,0.03-0.66,0.1-0.98
		c0.06-0.32,0.16-0.63,0.28-0.94c0.13-0.3,0.28-0.59,0.46-0.86c0.19-0.27,0.39-0.53,0.62-0.76c1.16-1.16,2.89-1.69,4.52-1.36
		c0.32,0.06,0.63,0.16,0.93,0.28c0.3,0.13,0.59,0.28,0.87,0.46c0.27,0.18,0.52,0.39,0.76,0.62c0.23,0.23,0.43,0.49,0.62,0.76
		c0.18,0.27,0.33,0.56,0.46,0.86c0.12,0.31,0.22,0.62,0.28,0.94c0.07,0.32,0.1,0.65,0.1,0.98c0,1.31-0.53,2.6-1.46,3.53
		c-0.24,0.23-0.49,0.44-0.76,0.62c-0.28,0.18-0.57,0.34-0.87,0.46c-0.3,0.13-0.61,0.23-0.93,0.29
		C90.166,332.573,89.836,332.613,89.506,332.613z"/>
	<path style="fill:#333333;" d="M27.506,316.613c-0.33,0-0.65-0.04-0.98-0.1c-0.32-0.06-0.63-0.16-0.93-0.29
		c-0.3-0.12-0.59-0.28-0.87-0.46c-0.27-0.18-0.53-0.39-0.76-0.62c-0.93-0.93-1.46-2.22-1.46-3.53c0-0.33,0.03-0.66,0.1-0.98
		c0.06-0.32,0.16-0.63,0.28-0.93c0.13-0.31,0.28-0.6,0.46-0.87s0.39-0.53,0.62-0.76s0.49-0.44,0.76-0.62
		c0.28-0.18,0.57-0.33,0.87-0.46c0.3-0.12,0.61-0.22,0.93-0.28c0.65-0.14,1.31-0.14,1.96,0c0.32,0.06,0.63,0.16,0.93,0.28
		c0.3,0.13,0.6,0.28,0.87,0.46s0.53,0.39,0.76,0.62s0.44,0.49,0.62,0.76c0.18,0.27,0.33,0.56,0.46,0.87
		c0.12,0.3,0.22,0.61,0.28,0.93c0.07,0.32,0.1,0.65,0.1,0.98c0,1.31-0.53,2.6-1.46,3.53c-0.23,0.23-0.49,0.44-0.76,0.62
		s-0.57,0.34-0.87,0.46c-0.3,0.13-0.61,0.23-0.93,0.29C28.166,316.573,27.836,316.613,27.506,316.613z"/>
	<path style="fill:#333333;" d="M214.197,415.369c-2.324,0-4.407-1.629-4.893-3.996c-0.952-4.635-4.921-8.09-9.654-8.401
		c-2.755-0.182-4.842-2.563-4.661-5.318c0.182-2.755,2.56-4.834,5.318-4.661c9.211,0.606,16.939,7.337,18.793,16.369
		c0.555,2.705-1.188,5.348-3.893,5.903C214.869,415.335,214.53,415.369,214.197,415.369z"/>
	<path style="fill:#333333;" d="M203.735,432.205c-0.28,0-0.563-0.024-0.849-0.073c-2.722-0.465-4.551-3.049-4.085-5.771
		c1.731-10.119,9.716-17.963,19.869-19.52c9.478-1.457,18.859,2.884,23.892,11.05c1.449,2.351,0.717,5.431-1.634,6.88
		c-2.351,1.448-5.432,0.716-6.88-1.634c-2.92-4.739-8.365-7.256-13.862-6.412c-5.891,0.903-10.523,5.453-11.528,11.322
		C208.241,430.483,206.126,432.204,203.735,432.205z"/>
	<path style="fill:#333333;" d="M266.873,111.058h-17.657c-2.761,0-5-2.239-5-5s2.239-5,5-5h17.657c2.761,0,5,2.239,5,5
		S269.634,111.058,266.873,111.058z"/>
	<path style="fill:#333333;" d="M234.549,111.058h-56.137c-2.761,0-5-2.239-5-5s2.239-5,5-5h56.137c2.761,0,5,2.239,5,5
		S237.311,111.058,234.549,111.058z"/>
	<circle style="fill:#61CCF2;" cx="222.648" cy="140.634" r="19.646"/>
	<circle style="fill:#61CCF2;" cx="222.648" cy="202.557" r="19.646"/>
	<g>
		<path style="fill:#FFFFFF;" d="M222.648,160.28c10.85,0,19.646-8.796,19.646-19.646c0-10.85-8.796-19.646-19.646-19.646"/>
		<path style="fill:#FFFFFF;" d="M222.648,222.203c10.85,0,19.646-8.796,19.646-19.646c0-10.85-8.796-19.646-19.646-19.646"/>
	</g>
	<path style="fill:#333333;" d="M222.648,165.28c-13.59,0-24.646-11.056-24.646-24.646s11.056-24.646,24.646-24.646
		c4.678,0,9.232,1.318,13.17,3.811c2.333,1.478,3.027,4.566,1.55,6.899s-4.565,3.028-6.899,1.55c-2.334-1.479-5.039-2.26-7.82-2.26
		c-8.076,0-14.646,6.57-14.646,14.646s6.57,14.646,14.646,14.646s14.646-6.57,14.646-14.646c0-2.761,2.239-5,5-5s5,2.239,5,5
		C247.294,154.224,236.238,165.28,222.648,165.28z"/>
	<path style="fill:#333333;" d="M222.648,227.204c-13.59,0-24.646-11.056-24.646-24.646s11.056-24.646,24.646-24.646
		c6.958,0,13.625,2.962,18.292,8.128c1.852,2.049,1.691,5.211-0.358,7.062c-2.049,1.852-5.211,1.691-7.062-0.358
		c-2.774-3.071-6.737-4.832-10.872-4.832c-8.076,0-14.646,6.57-14.646,14.646s6.57,14.646,14.646,14.646s14.646-6.57,14.646-14.646
		c0-2.761,2.239-5,5-5s5,2.239,5,5C247.294,216.147,236.238,227.204,222.648,227.204z"/>
	<path style="fill:#FFFFFF;" d="M251.655,309.386c-2.761,0-5-2.239-5-5V163.988c0-2.761,2.239-5,5-5s5,2.239,5,5v140.398
		C256.655,307.147,254.417,309.386,251.655,309.386z"/>
	<path style="fill:#FFFFFF;" d="M251.655,147.987c-2.761,0-5-2.239-5-5v-13c0-2.761,2.239-5,5-5s5,2.239,5,5v13
		C256.655,145.749,254.417,147.987,251.655,147.987z"/>
</g>
<g>
</g>
<g>
</g>
<g>
</g>
<g>
</g>
<g>
</g>
<g>
</g>
<g>
</g>
<g>
</g>
<g>
</g>
<g>
</g>
<g>
</g>
<g>
</g>
<g>
</g>
<g>
</g>
<g>
</g>
</svg>
